<?xml version="1.0"?>
<svg xmlns="http://www.w3.org/2000/svg" xmlns:xlink="http://www.w3.org/1999/xlink" xmlns:svgjs="http://svgjs.com/svgjs" version="1.1" width="512" height="512" x="0" y="0" viewBox="0 0 512 512" style="enable-background:new 0 0 512 512" xml:space="preserve"><g><g xmlns="http://www.w3.org/2000/svg"><path d="m469.545 106.772-213.545-106.772-213.545 106.772 213.545 106.773z" fill="#f1eaea" data-original="#000000" style=""/><path d="m331 482h-150v-30h-30v60h210v-60h-30z" fill="#f1eaea" data-original="#000000" style=""/><path d="m241 356.072v41.487l-19.395-19.395-21.21 21.211 55.605 55.605 55.605-55.605-21.21-21.211-19.395 19.395v-41.487l-15 7.5z" fill="#f1eaea" data-original="#000000" style=""/><path d="m256 288.545 213.545-106.773-41.459-20.729-172.086 86.047-172.086-86.047-41.459 20.729z" fill="#f1eaea" data-original="#000000" style=""/><path d="m83.8 236.072-41.4 20.7 198.6 99.3v-41.4z" fill="#f1eaea" data-original="#000000" style=""/><path d="m271 314.672v41.4l198.6-99.3-41.4-20.7z" fill="#f1eaea" data-original="#000000" style=""/></g></g></svg>
